<svg width="45" height="45" viewBox="0 0 45 45" fill="none" xmlns="http://www.w3.org/2000/svg">
<path d="M36.5625 28.7844V11.0406C36.5625 10.7061 36.2105 10.4885 35.9113 10.6381L29.2191 13.9842C29.1184 14.0346 29.0024 14.0453 28.8942 14.0144L16.1058 10.3606C15.9976 10.3297 15.8816 10.3404 15.7809 10.3908L8.68625 13.9381C8.5338 14.0143 8.4375 14.1702 8.4375 14.3406V32.0844C8.4375 32.4189 8.78954 32.6365 9.08875 32.4869L15.7809 29.1408C15.8816 29.0904 15.9976 29.0797 16.1058 29.1106L28.8942 32.7644C29.0024 32.7953 29.1184 32.7846 29.2191 32.7342L36.3137 29.1869C36.4662 29.1107 36.5625 28.9548 36.5625 28.7844Z" stroke="#222222"/>
<path d="M29.0625 32.8125V14.0625" stroke="#222222"/>
<path d="M15.9375 29.0625V10.3125" stroke="#222222"/>
</svg>
