<svg width="45" height="45" viewBox="0 0 45 45" fill="none" xmlns="http://www.w3.org/2000/svg">
<path fill-rule="evenodd" clip-rule="evenodd" d="M14 9.37703C14 8.66957 13.2855 8.18581 12.6286 8.44855L6.25361 10.9986C5.87395 11.1504 5.625 11.5181 5.625 11.927V36.023C5.625 36.7304 6.33953 37.2142 6.99639 36.9514L13.3714 34.4014C13.751 34.2496 14 33.8819 14 33.473V9.37703ZM16 33.2192C16 33.6781 16.3123 34.0781 16.7575 34.1894L27.7575 36.9394C28.3886 37.0971 29 36.6198 29 35.9692V11.7808C29 11.3219 28.6877 10.9219 28.2425 10.8106L17.2425 8.06063C16.6114 7.90284 16 8.3802 16 9.03077V33.2192ZM31.6286 10.5986C31.249 10.7504 31 11.1181 31 11.527V35.623C31 36.3304 31.7145 36.8142 32.3714 36.5514L38.7464 34.0014C39.126 33.8496 39.375 33.4819 39.375 33.073V8.97703C39.375 8.26957 38.6605 7.78581 38.0036 8.04855L31.6286 10.5986Z" fill="#33363F"/>
</svg>
