<svg width="45" height="45" viewBox="0 0 45 45" fill="none" xmlns="http://www.w3.org/2000/svg">
<path fill-rule="evenodd" clip-rule="evenodd" d="M20.625 33.75C27.8737 33.75 33.75 27.8737 33.75 20.625C33.75 13.3763 27.8737 7.5 20.625 7.5C13.3763 7.5 7.5 13.3763 7.5 20.625C7.5 27.8737 13.3763 33.75 20.625 33.75ZM20.625 12.125C19.5088 12.125 18.4035 12.3449 17.3722 12.772C16.3409 13.1992 15.4039 13.8253 14.6146 14.6146C13.8253 15.4039 13.1992 16.3409 12.772 17.3722C12.3449 18.4035 12.125 19.5088 12.125 20.625C12.125 21.1773 12.5727 21.625 13.125 21.625C13.6773 21.625 14.125 21.1773 14.125 20.625C14.125 19.7714 14.2931 18.9262 14.6198 18.1376C14.9464 17.3489 15.4252 16.6324 16.0288 16.0288C16.6324 15.4252 17.3489 14.9464 18.1376 14.6198C18.9262 14.2931 19.7714 14.125 20.625 14.125C21.1773 14.125 21.625 13.6773 21.625 13.125C21.625 12.5727 21.1773 12.125 20.625 12.125Z" fill="#222222"/>
<path d="M37.5 37.5L33.75 33.75" stroke="#222222" stroke-width="2" stroke-linecap="round"/>
</svg>
