<svg width="45" height="45" viewBox="0 0 45 45" fill="none" xmlns="http://www.w3.org/2000/svg">
<path fill-rule="evenodd" clip-rule="evenodd" d="M34.2224 6.42651C34.8474 6.06937 35.625 6.52065 35.625 7.24049V37.7595C35.625 38.4794 34.8474 38.9306 34.2224 38.5735L29.9928 36.1566C29.4163 35.8272 28.7087 35.8272 28.1322 36.1566L23.9884 38.5245C23.0661 39.0515 21.9339 39.0515 21.0116 38.5245L16.8678 36.1566C16.2913 35.8272 15.5837 35.8272 15.0072 36.1566L10.7776 38.5735C10.1526 38.9306 9.375 38.4794 9.375 37.7595V7.24049C9.375 6.52066 10.1526 6.06937 10.7776 6.42651L15.0072 8.84343C15.5837 9.17282 16.2913 9.17282 16.8678 8.84343L21.0116 6.47553C21.9339 5.9485 23.0661 5.9485 23.9884 6.47553L28.1322 8.84343C28.7087 9.17282 29.4163 9.17282 29.9928 8.84343L34.2224 6.42651ZM17.8125 16.875C17.2947 16.875 16.875 17.2947 16.875 17.8125C16.875 18.3303 17.2947 18.75 17.8125 18.75H27.1875C27.7053 18.75 28.125 18.3303 28.125 17.8125C28.125 17.2947 27.7053 16.875 27.1875 16.875H17.8125ZM17.8125 21.5625C17.2947 21.5625 16.875 21.9822 16.875 22.5C16.875 23.0178 17.2947 23.4375 17.8125 23.4375H27.1875C27.7053 23.4375 28.125 23.0178 28.125 22.5C28.125 21.9822 27.7053 21.5625 27.1875 21.5625H17.8125ZM17.8125 26.25C17.2947 26.25 16.875 26.6697 16.875 27.1875C16.875 27.7053 17.2947 28.125 17.8125 28.125H27.1875C27.7053 28.125 28.125 27.7053 28.125 27.1875C28.125 26.6697 27.7053 26.25 27.1875 26.25H17.8125Z" fill="#222222"/>
</svg>
