<svg width="45" height="45" viewBox="0 0 45 45" fill="none" xmlns="http://www.w3.org/2000/svg">
<path d="M32.8125 35.6347V9.36528C32.8125 8.16723 31.4773 7.45265 30.4804 8.1172L28.1001 9.70409C27.5566 10.0664 26.8411 10.0354 26.331 9.62732L23.437 7.31213C22.8892 6.87387 22.1108 6.87387 21.563 7.31213L18.669 9.62732C18.1589 10.0354 17.4434 10.0664 16.8999 9.70409L14.5196 8.1172C13.5227 7.45265 12.1875 8.16723 12.1875 9.36528V35.6347C12.1875 36.8328 13.5227 37.5474 14.5196 36.8828L16.8999 35.2959C17.4434 34.9336 18.1589 34.9646 18.669 35.3727L21.563 37.6879C22.1108 38.1261 22.8892 38.1261 23.437 37.6879L26.331 35.3727C26.8411 34.9646 27.5566 34.9336 28.1001 35.2959L30.4804 36.8828C31.4773 37.5474 32.8125 36.8328 32.8125 35.6347Z" stroke="#222222"/>
<path d="M17.8125 17.8125H27.1875" stroke="#222222" stroke-linecap="round"/>
<path d="M17.8125 22.5H27.1875" stroke="#222222" stroke-linecap="round"/>
<path d="M17.8125 27.1875H27.1875" stroke="#222222" stroke-linecap="round"/>
</svg>
